<svg xmlns="http://www.w3.org/2000/svg" data-name="Layer 2" viewBox="0 0 377.64 342.5875" x="0px" y="0px"><g data-name="Flutter Clutter"><g data-name="Flutter Clutter"><g><path d="m221.35,54.61c0-15.38-14.52-31.86-32.45-31.86s-32.45,16.48-32.45,31.86,0,0,32.45,0,32.45,15.38,32.45,0Z"/><path d="m188.9,142.06c-26.89,0-48.77-21.88-48.77-48.77,0-12.65,4.96-22.93,14.34-29.74,8.5-6.17,20.41-9.43,34.43-9.43s25.92,3.27,34.43,9.43c9.38,6.8,14.34,17.09,14.34,29.74,0,26.89-21.88,48.77-48.77,48.77Zm0-86.98c-29.94,0-47.81,14.28-47.81,38.2,0,26.36,21.44,47.81,47.81,47.81s47.81-21.44,47.81-47.81c0-23.92-17.87-38.2-47.81-38.2Z"/><path d="m187.88,117.57c-25.97,0-44.14-7.47-45.14-8.58-.26-.29-.15-.57-.12-.66l.86.43c.1-.19.02-.38-.03-.43,1.55,1.65,43.41,17.82,91.09-.24l.34.91c-16.94,6.42-33.09,8.56-47.01,8.56Z"/><path d="m141.23,85.92l-.43-.33.13-.51c.28-.27,53-17.37,95.47-1.43l-.34.91c-39.61-14.86-91.82-.22-94.52,1.28l-.22-.4h-.04l-.05.5v-.02Z"/><path d="m188.75,54.61c-26.67,0-48.29,12.01-48.29,38.68s21.62,48.29,48.29,48.29,48.3-21.62,48.3-48.29-21.62-38.68-48.3-38.68Zm0,85.37c-25.74,0-46.69-20.94-46.69-46.69,0-23.21,17.45-37.07,46.69-37.07s46.69,13.86,46.69,37.07c0,25.74-20.94,46.69-46.69,46.69Z"/><path d="m142.92,108.56c-.53,1.06,45.69,22.86,91.66,0,4.32-13.84,1.51-24.46,1.51-24.46-41.89-15.71-94.73.27-94.95,1.34-2.14,10.28,1.78,23.12,1.78,23.12h0Z"/><path d="m188.9,259.89c-29.99,0-54.38-39.24-54.38-87.47,0-15.81,2.58-25.42,8.11-30.25,6.39-5.58,16.09-4.26,27.33-2.73,6.04.82,12.28,1.66,18.94,1.66s12.9-.85,18.94-1.66c11.24-1.53,20.94-2.84,27.33,2.73,5.54,4.83,8.11,14.45,8.11,30.25,0,48.23-24.39,87.47-54.38,87.47Zm-32.92-120.81c-5.05,0-9.39.93-12.71,3.82-5.31,4.64-7.78,14.02-7.78,29.52,0,47.7,23.96,86.5,53.41,86.5s53.41-38.8,53.41-86.5c0-15.51-2.47-24.88-7.78-29.52-6.05-5.29-15.56-4-26.56-2.5-5.79.78-12.35,1.67-19.07,1.67s-13.29-.89-19.07-1.67c-4.99-.68-9.66-1.31-13.85-1.31h-.02Z"/><path d="m187.36,224.86c-5.57,0-10.61-.54-14.98-1.33-17.5-3.14-30.05-11.07-32.9-14.63l-.08-.15c-4.33-13.14-4.89-36.08-4.9-36.32l-.02-.99.79.58c.11.08,11.21,8.14,29.9,12.13,17.25,3.68,44.67,4.56,77.38-12.17l.72-.37-.02.81c0,.24-.61,24.44-4.9,36.33l-.06.15-.14.09c-18.82,12.28-36.55,15.86-50.81,15.86h0Zm-47.06-16.49c2.86,3.49,15.11,11.14,32.26,14.22,15.38,2.75,39.13,2.51,64.96-14.29,3.75-10.55,4.62-30.77,4.76-35.05-32.66,16.49-60.07,15.57-77.35,11.87-16.03-3.43-26.55-9.83-29.43-11.73.15,4.45,1.02,23.5,4.79,35h0Z"/><path d="m188.9,141.59c-29.76,0-53.9-17.2-53.9,30.84s24.13,86.98,53.9,86.98,53.9-38.95,53.9-86.98-24.13-30.84-53.9-30.84h0Zm-1.43,81.19c-25.14,0-43.03-11.49-46.16-14.98-3.22-10.03-4.27-25.72-4.57-32.32,6.46,3.93,24.15,13.01,49.85,13.01,17.99,0,36.33-4.51,54.51-13.41-.28,6.48-1.29,23.12-4.49,32.47-15.66,10.11-32.18,15.23-49.12,15.23h0Z"/><g><path d="m65.08,126.27c-5.83,0-11.5-.6-16.89-1.95-17.46-4.36-23.9-14.37-24.42-15.23-.48-.67-7.15-9.84-13.24-21.56C2.04,71.17-1.35,57.88.48,48.04c1.11-5.99,4.19-10.63,9.15-13.8,11.55-7.37,37.32-1.09,76.61,18.66,27.57,13.86,52.47,29.82,55.18,31.58h.69l.14,18.26-.52.27c-21.55,11.26-50.63,23.26-76.63,23.26ZM22.11,33.16c-4.6,0-8.5.83-11.44,2.71-4.49,2.87-7.29,7.08-8.29,12.52-4.17,22.52,22.7,59.22,22.97,59.59.12.18,6.32,10.29,23.49,14.51,28.7,7.06,65.48-7.41,91.46-20.92l-.12-15.59c-6.44-4.14-82.9-52.82-118.07-52.82h0Z"/><path d="m65.85,125.72l-1.75-.81c11.29-24.31,35.43-30.17,54.82-30.52-10.47-1.86-23.81-4.36-37.84-7.34-26.59-5.65-62-14.54-79.78-24.76l.97-1.67c17.56,10.09,52.76,18.92,79.21,24.55,31.21,6.64,58.99,10.88,59.27,10.92l-.22,1.92c-.16,0-.55-.08-1.13-.16-16.94-2.75-58.02-5.55-73.54,27.9v-.02Z"/><path d="m80.33,86.35c-8.02-30.17-23.9-44.76-24.05-44.9l1.29-1.44c.16.14,16.45,15.08,24.63,45.85l-1.87.49h0Z"/><path d="m31.36,114.66c-1.41,0-2.67-.34-3.74-1.08l1.1-1.58c5.27,3.64,19-6.96,30.04-15.48,8.36-6.46,15.58-12.04,19.42-12.04v1.93c-3.18,0-10.84,5.91-18.25,11.64-10.61,8.19-21.51,16.62-28.58,16.62Z"/><path d="m54.1,101.49c-18.14-16.93-39.88-9.34-40.11-9.26l-.66-1.82c.23-.09,23.05-8.1,42.08,9.66l-1.32,1.41h0Z"/><path d="m89.72,122.85l-1.79-.74c4.32-10.35,14.81-17.96,30.32-21.99,11.62-3.02,22.07-3,22.21-3v1.93c-.34,0-40.83.06-50.74,23.79Z"/><path d="m134.52,97.04c-.51-.29-51.33-29.17-61.18-31.1l.37-1.89c10.16,1.99,59.66,30.11,61.76,31.31l-.96,1.68h0Z"/><path d="m94.72,89.85c-.31-.12-7.5-2.98-9.76-9.15-1.21-3.29-.78-6.85,1.26-10.6,5.15-9.48,3.56-13.42,3.55-13.46l1.75-.82c.09.18,2.11,4.72-3.59,15.2-1.76,3.24-2.15,6.27-1.14,9.02,1.97,5.36,8.58,7.99,8.65,8.01l-.7,1.81h0Z"/><path d="m6.69,54.06c-3.64,0-5.81-.77-6.06-.86l.68-1.81c.16.06,16.48,5.73,37.8-17.05l1.41,1.32c-14.6,15.6-26.89,18.4-33.83,18.4h0Z"/><path d="m52.63,80.36c-.93-.64-22.87-15.79-29.91-31.82-2.51-5.72-5.59-9.23-9.15-10.46-3.38-1.16-5.97.22-6.08.28l-.94-1.69c.14-.08,3.39-1.85,7.6-.43,4.12,1.38,7.6,5.26,10.35,11.52,6.81,15.52,29.01,30.86,29.23,31.01l-1.09,1.59h0Z"/><path d="m96.64,192.6c-5.03,0-10.29-1.2-15.75-3.59-9.84-4.31-25.43-13.64-19.33-27.63,1.49-3.42,4.15-6.32,7.69-8.38,19.66-11.37,54.22-43.11,54.56-43.43l1.31,1.42c-.35.32-35.07,32.2-54.91,43.68-3.18,1.85-5.56,4.43-6.88,7.47-3.69,8.48,1.14,16.38,14,23.03,12.45-3.89,29.53-29.73,43.28-50.52,12.2-18.45,18.75-28.01,22.55-27.03l2.15.56-1.87,1.19c-5.46,3.48-7.99,16.09-7.5,37.48.03,1.22.05,2.02.02,2.41-.15,2.74-4.5,14.76-5,16.11-.29.76-7.14,18.39-22.67,24.89-3.71,1.56-7.62,2.34-11.66,2.34h0Zm-16.94-6.24c.64.3,1.29.6,1.96.89,9.35,4.11,18.06,4.52,25.87,1.25,14.76-6.18,21.55-23.62,21.62-23.79,1.31-3.6,4.75-13.46,4.88-15.55.02-.3,0-1.16-.03-2.25-.43-18.79,1.58-28.37,3.82-33.43-4.19,5.03-10.13,14-15.59,22.26-13.29,20.1-29.66,44.86-42.54,50.62h0Z"/><path d="m113.03,186.17c-3.75-20.17.63-40.77.68-40.97l1.89.41c-.05.2-4.34,20.45-.66,40.22l-1.9.36h0Z"/><path d="m103.58,174.46c-.63,0-1.25-.06-1.86-.16-3.94-.71-5.89-3.48-5.97-3.59l1.59-1.1-.79.55.79-.55c.19.27,4.81,6.6,14.56-.24l1.11,1.58c-3.33,2.34-6.49,3.52-9.42,3.52h-.02Z"/><path d="m65.04,159.19l-1.2-1.52c16.13-12.82,25.47-14.26,33.73-15.54,8.3-1.28,15.47-2.39,27.96-14.81l1.36,1.37c-12.94,12.87-20.75,14.08-29.03,15.36-8.01,1.24-17.09,2.64-32.82,15.14h0Z"/></g><g><path d="m312.56,126.27c-26.02,0-55.08-12-76.63-23.26l-.52-.27.14-18.26h.69c2.72-1.75,27.61-17.71,55.18-31.57,39.28-19.75,65.06-26.02,76.61-18.66,4.97,3.17,8.04,7.81,9.15,13.8,1.83,9.84-1.56,23.12-10.05,39.49-6.08,11.72-12.75,20.9-13.24,21.56-.52.85-6.96,10.87-24.42,15.23-5.39,1.34-11.07,1.95-16.89,1.95h0Zm-75.22-24.71c25.99,13.51,62.75,27.98,91.46,20.92,17.16-4.22,23.38-14.33,23.43-14.43.33-.44,27.19-37.16,23.02-59.66-1.01-5.44-3.8-9.65-8.29-12.52-25.41-16.22-122.25,45.43-129.52,50.11l-.12,15.59h0Z"/><path d="m311.79,125.72c-15.52-33.44-56.6-30.65-73.54-27.9-.58.1-.97.15-1.13.16l-.22-1.92c.28-.04,28.05-4.28,59.27-10.92,26.45-5.62,61.67-14.45,79.21-24.55l.97,1.67c-17.77,10.21-53.19,19.11-79.78,24.76-14.03,2.99-27.38,5.49-37.84,7.33,19.4.35,43.54,6.2,54.82,30.53l-1.75.81v.02Z"/><path d="m297.31,86.35l-1.87-.49c4.27-16.06,10.73-27.66,15.38-34.55,5.07-7.5,9.08-11.14,9.25-11.3l1.29,1.44c-.15.14-16.03,14.73-24.05,44.9h0Z"/><path d="m346.28,114.66c-7.06,0-17.97-8.43-28.58-16.62-7.4-5.72-15.06-11.64-18.25-11.64v-1.93c3.85,0,11.07,5.58,19.42,12.03,11.04,8.52,24.77,19.13,30.04,15.48l1.1,1.58c-1.07.74-2.33,1.08-3.74,1.08h0Z"/><path d="m323.54,101.49l-1.32-1.41c19.03-17.76,41.85-9.74,42.08-9.66l-.66,1.82c-.21-.08-21.96-7.67-40.11,9.26h0Z"/><path d="m287.91,122.85c-9.91-23.73-50.35-23.83-50.73-23.79v-1.93c.13.03,10.6-.02,22.2,3,15.51,4.03,26,11.64,30.32,21.99l-1.79.74h0Z"/><path d="m243.12,97.04l-.96-1.68c2.1-1.2,51.61-29.32,61.76-31.31l.37,1.89c-9.85,1.93-60.67,30.81-61.18,31.1h0Z"/><path d="m282.91,89.85l-.71-1.8c.07-.03,6.7-2.67,8.66-8.02,1.01-2.73.62-5.77-1.14-9.01-5.69-10.49-3.68-15.02-3.59-15.2l1.75.82s-1.6,3.99,3.54,13.46c2.04,3.75,2.45,7.32,1.26,10.6-2.27,6.18-9.46,9.04-9.76,9.15h0Z"/><path d="m370.95,54.06c-6.94,0-19.23-2.79-33.83-18.4l1.41-1.32c11.16,11.93,20.85,15.93,27.03,17.17,6.65,1.34,10.73-.12,10.77-.14l.68,1.81c-.24.1-2.42.86-6.06.86v.02Z"/><path d="m325.01,80.36l-1.09-1.59c.22-.15,22.42-15.48,29.23-31.01,2.74-6.26,6.22-10.14,10.35-11.52,4.2-1.41,7.46.36,7.6.43l-.94,1.69c-.11-.06-2.7-1.43-6.08-.28-3.57,1.22-6.64,4.74-9.15,10.46-7.04,16.03-28.98,31.19-29.91,31.82h0Z"/><path d="m280.99,192.6c-4.05,0-7.94-.78-11.66-2.34-15.53-6.51-22.38-24.14-22.66-24.88-.5-1.37-4.84-13.37-5-16.13-.02-.38,0-1.19.02-2.41.48-21.39-2.04-34-7.5-37.48l-1.87-1.19,2.15-.56c3.82-.99,10.35,8.59,22.54,27.03,13.75,20.8,30.83,46.63,43.28,50.52,12.86-6.65,17.7-14.55,14-23.03-1.32-3.04-3.71-5.62-6.88-7.47-19.84-11.48-54.56-43.36-54.91-43.68l1.3-1.42c.35.32,34.92,32.06,54.56,43.43,3.54,2.05,6.19,4.95,7.69,8.38,6.1,13.99-9.49,23.31-19.33,27.63-5.46,2.4-10.73,3.59-15.75,3.59h.02Zm-41.37-79.35c4.54,9.66,4.15,27.05,4,33.65-.03,1.08-.05,1.94-.03,2.25.12,2.09,3.57,11.94,4.88,15.57.06.16,6.85,17.6,21.61,23.78,7.82,3.28,16.52,2.85,25.87-1.25.68-.29,1.32-.59,1.96-.89-12.88-5.77-29.24-30.52-42.54-50.62-5.54-8.38-11.57-17.49-15.77-22.48l.02-.02Z"/><path d="m264.61,186.17l-1.9-.36c3.68-19.79-.62-40.02-.66-40.22l1.89-.41c.05.2,4.43,20.82.68,40.97h0Z"/><path d="m274.06,174.46c-2.93,0-6.09-1.18-9.42-3.52l1.11-1.58c9.74,6.83,14.37.51,14.56.24l1.58,1.1c-.08.12-2.04,2.89-5.97,3.59-.61.11-1.23.16-1.86.16h0Z"/><path d="m312.6,159.19c-15.73-12.51-24.81-13.91-32.82-15.14-8.27-1.28-16.09-2.48-29.03-15.36l1.36-1.37c12.49,12.44,19.66,13.54,27.96,14.81,8.24,1.28,17.59,2.72,33.73,15.54l-1.2,1.52h0Z"/></g><g><path d="m224.28,67.42c-.64,0-1.28-.25-1.76-.75-.92-.97-.88-2.49.1-3.41,5.61-5.32,20.64-20.59,22.73-27.31l.43-1.38,1.42-.28c13.08-2.55,34.98-9.35,38.06-16.73.51-1.24,1.92-1.82,3.16-1.3,1.23.51,1.82,1.92,1.3,3.16-4.69,11.25-33.06,17.84-40.27,19.35-4.12,9.47-21.44,26.04-23.5,28-.46.44-1.06.66-1.66.66h0Z"/><path d="m282.33,241.63c-1.28,0-2.35-1.01-2.42-2.29l-1.18-22.75c-24.06-19.4-38.55-52.36-39.16-53.77-.53-1.23.03-2.65,1.26-3.18,1.22-.53,2.65.03,3.18,1.26.14.34,14.98,34.06,38.58,52.58l.86.68,1.29,24.92c.07,1.33-.96,2.46-2.29,2.54h-.13Z"/><path d="m241.79,274.06c-.31,0-.62-.06-.92-.18-1.24-.51-1.83-1.92-1.31-3.15,5.48-13.33,13.69-36.6,12.42-42.32-1.41-6.32-11.65-15.05-15.48-17.87-1.07-.79-1.3-2.3-.51-3.38.79-1.08,2.3-1.3,3.38-.51,1.56,1.15,15.28,11.5,17.34,20.71,2.02,9.06-11.16,41.53-12.67,45.2-.39.94-1.29,1.5-2.23,1.5h0Z"/></g><g><path d="m153.31,67.42c-.6,0-1.2-.22-1.66-.66-2.06-1.94-19.39-18.53-23.5-28-7.22-1.51-35.59-8.1-40.27-19.35-.51-1.23.07-2.65,1.3-3.16,1.23-.51,2.65.07,3.16,1.3,3.07,7.37,24.97,14.18,38.06,16.73l1.41.28.43,1.38c2.09,6.72,17.11,21.99,22.73,27.31.97.92,1.01,2.44.1,3.41-.47.5-1.11.75-1.76.75h0Z"/><path d="m95.25,241.63h-.13c-1.33-.07-2.36-1.21-2.29-2.54l1.29-24.92.86-.68c23.6-18.53,38.43-52.24,38.58-52.58.53-1.23,1.96-1.78,3.18-1.26,1.23.53,1.79,1.95,1.26,3.18-.61,1.41-15.1,34.37-39.16,53.77l-1.18,22.75c-.07,1.29-1.13,2.29-2.42,2.29h0Z"/><path d="m135.79,274.06c-.95,0-1.86-.56-2.23-1.5-1.51-3.67-14.69-36.13-12.67-45.2.21-.97,2.53-9.79,17.34-20.71,1.07-.79,2.58-.56,3.38.51s.56,2.58-.51,3.38c-3.83,2.83-14.08,11.56-15.48,17.87-1.28,5.72,6.94,28.99,12.42,42.32.5,1.24-.08,2.65-1.31,3.15-.3.13-.61.18-.92.18h0Z"/></g><g><path d="m201.98,26l-1.72-.88c.19-.38,19.76-37.8,53.5-20.6l-.88,1.72c-13.4-6.83-26.02-5.62-37.49,3.59-8.65,6.95-13.37,16.08-13.42,16.17h0Z"/><path d="m256.91,7.07c-1.09,1.23-3.01,2.01-5.34,1.07s-5.67-6.17-5.67-6.17c0,0,5.02,0,7.41.79,3.03,1.01,5.41,2.27,3.6,4.31h0Z"/></g><g><path d="m176.04,26.06l1.72-.88c-.19-.38-19.76-37.8-53.5-20.6l.88,1.72c13.4-6.83,26.02-5.62,37.49,3.59,8.65,6.95,13.37,16.08,13.42,16.17h0Z"/><path d="m121.12,7.13c1.09,1.23,3.01,2.01,5.34,1.07,2.34-.94,5.67-6.17,5.67-6.17,0,0-5.02,0-7.41.79-3.03,1.01-5.41,2.27-3.6,4.31h0Z"/></g></g></g></g></svg>