<svg xmlns="http://www.w3.org/2000/svg" xmlns:xlink="http://www.w3.org/1999/xlink" version="1.1" x="0px" y="0px" viewBox="0 0 100 125" style="enable-background:new 0 0 100 100;" xml:space="preserve"><path d="M94.7,41c-0.5-1.1-2.3-2.2-3.2-2.9c-5.9-4.4-13.4-6.6-20.7-7.3c-3.7-0.4-7.3-0.1-11-0.1c-2.4,0-4.7,0.5-7,1.1  c-0.9,0.2-2,0.7-3,0.5c-0.1,0-0.2-0.1-0.2-0.1c-0.6-0.3-0.8-0.9-1.2-1.5c-0.2-0.2-0.6-0.6-0.8-0.8c-0.4-0.8-0.1-1.6,0.3-2.4  c0.4-0.9,1-2,1.8-2.6c0.5-0.4,1.8-0.5,1.9-1.2c0.1-1.1-1.5-0.1-1.9,0.2c-0.9,0.6-1.7,1.6-2.2,2.6c-0.4,0.8-0.6,2.2-1.4,2.8  c-1.1,0.7-1.8-0.2-2.7-0.8c-1.6-1.1-4.1-1.9-6-1.8c-0.5,0-1.8,0.1-1.6,1c0.1,0.3,0.8,0.4,1.1,0.4c0.3,0,0.2-0.4,0.4-0.5  c1.6-0.4,4.1,0.4,5.5,1.2c0.5,0.3,1.6,0.9,1.7,1.5c0,0.3-0.4,0.8-0.5,1c-0.2,0.5-0.2,0.7-0.3,1.3c-0.1,1-0.4,0.9-1.4,0.9  c-1.2,0.1-2.3,0.5-3.5,0.9c-2,0.7-3.9,1.5-5.9,2.3c-4.1,1.6-8,3.6-11.8,5.9c-3.8,2.3-7.5,5.1-10.3,8.5C9.2,53,8,54.9,6.9,56.9  c-1.2,2.2-1.7,4-1.9,6.5c-0.1,2.2,0,4.1,2,5.4c1.7,1.1,4.2,1.5,6.3,1.6c2.3,0,4.7-0.3,6.9-0.1c1.4,0.1,3.3,0.3,4.2,1.5  c0.5,0.7,0.8,1.8,1.5,2.4c1,1,2.4,1.5,3.7,1.8c1.6,0.4,3.3,0.5,4.8,0.7c1.8,0.2,3.4,0.1,5.2,0c6.4-0.4,11.1-7.4,12.6-13.1  c1.9,0.7,4,1.2,6,1.6c2.1,0.5,4.1,1.2,6.2,1.6c3.5,0.7,7,0,10-2c2.9-2,4.5-5,5.3-8.4c0.3-1.4,0.5-2.8,1.5-3.9c1.2-1.4,2.5-2.7,4-3.8  c1.3-1,2.8-1.9,4.4-2.5c1.3-0.5,2.8-0.7,4-1.4C94.8,44.1,95.4,42.4,94.7,41z M83.1,34.7C83.1,34.6,83.1,34.6,83.1,34.7  c0.1-0.1,0.2-0.1,0.3,0c0.2,0,0.5,0.1,0.7,0.1c0.2,0.1,0.5,0.2,0.7,0.3c0.3,0.2,0.7,0.5,0.1,0.5c-0.3,0-0.6-0.1-0.9-0.2  C83.9,35.3,83,34.9,83.1,34.7z M79.3,34.2c0.1-0.9,2.6,0.6,2.9,0.8c0.3,0.2,0.2,0.6,0,0.8c-0.2,0.2-0.5,0.2-0.8,0.2c0,0,0,0-0.1,0  c-0.7-0.1-1.5-0.5-2-1.1C79.3,34.8,79.3,34.5,79.3,34.2z M75.2,32.6c0.8,0,1.6,0.1,2.4,0.5c0.2,0.1,0.4,0.3,0.4,0.5  c0,0.1-0.1,0.1-0.2,0.2c-0.2,0.1-0.5,0-0.8,0c-0.5,0-1.1-0.1-1.6-0.3c-0.2-0.1-0.3-0.3-0.5-0.5C74.8,32.8,74.9,32.6,75.2,32.6z   M73.7,34c0.5-0.5,2.1,0.4,2.6,0.7c0.3,0.1,1.2,0.5,1.2,0.9c0,0,0,0,0,0.1c-0.2,0.4-1.3,0.1-1.6,0.1c-0.5-0.1-1-0.4-1.5-0.7  c-0.2-0.1-0.3-0.2-0.5-0.2C73.6,34.6,73.5,34.2,73.7,34z M71.3,31.9c0.1-0.1,0.1-0.1,0.2-0.1c0.2-0.1,0.8,0,0.9,0.2  c0.2,0.4-0.9,0.2-1.1,0.2C71.2,32.1,71.2,32,71.3,31.9z M71.8,33c0.2,0,0.9,0.1,1.1,0.3c0.1,0.1,0.1,0.2-0.1,0.3  c-0.2,0.2-0.8,0.1-1.1,0.1c-0.2,0-0.9-0.1-0.9-0.3C70.8,33.1,71.6,33,71.8,33z M67.2,31.6c0.2-0.1,0.5,0,0.8,0  c0.5,0.1,0.9,0.1,1.4,0.2c0.2,0,0.5,0.2,0.1,0.3c-0.1,0-0.2,0-0.3,0c-0.6-0.1-1.3,0-1.9-0.2c-0.1,0-0.2-0.1-0.2-0.1  C67,31.8,67,31.7,67.2,31.6z M50.6,34.1c0.4-0.4,1.3-0.6,1.9-0.7c1-0.2,2-0.3,3-0.5c2.2-0.2,4.4-0.1,6.6-0.2c2.3-0.1,4.6,0.3,6.7,1  c1.1,0.3,2.1,0.7,3.2,1.1c0.9,0.4,2.1,0.6,2.8,1.4c-1.6,1.4-3.6,1.2-5.7,1.3c-2.4,0.1-4.6,0.3-6.9-0.1c-2.4-0.4-4.8-0.7-7.1-1.4  c-1.1-0.3-2-0.4-3.1-0.6C51.1,35.3,49.8,34.8,50.6,34.1z M48.9,40.7c-0.1-0.4-0.2-0.7-0.3-1.1C49,39.7,49.1,40,48.9,40.7z   M48.2,35.8c0,0,0.1,0,0.1,0c0.1,0.4,0.2,0.8,0.3,1.2c0.1,0.5,0.2,1.1,0.3,1.6c0,0.1,0,0.3-0.1,0.3c-0.1,0-0.2,0-0.3-0.1  C48.2,38.4,48.1,36.2,48.2,35.8z M47,47.8c0.4-0.3,0.9-0.5,1.3-0.6c0.5-0.1,1.1-0.1,1.6-0.1c0.3,0,0.5,0,0.8,0c0.1,0,0.2,0,0.3,0  c0.3,0.1,0.5,0.5,0.3,0.8c-0.1,0.1-1.2,0-1.4,0c-0.3,0-0.6,0-0.9,0.1c-0.2,0-0.4,0-0.6,0.1c-0.4,0.1-0.8,0.1-1.1,0.4  c-0.3,0.3-0.6,0.6-0.9,0.9c-0.1-0.3-0.2-0.5-0.2-0.8C46.2,48.2,46.7,48,47,47.8z M52,53.4c-0.1,0.2-0.3,0.1-0.5,0.1  c-0.5,0-1.1,0.1-1.6,0.2c-0.1,0-0.3,0-0.4,0.1c-0.3,0.1-0.5,0.3-0.8,0.4c-0.1,0.1-0.3,0.1-0.4,0c0-0.1-0.1-0.1-0.1-0.2  c0-0.3,0.3-0.4,0.5-0.6c0.3-0.2,0.6-0.3,1-0.4c0.4-0.1,0.8-0.1,1.2-0.1c0.3,0,0.6,0,0.8,0.1C51.9,53,52.2,53.1,52,53.4z M52.5,56.2  c0.1,0.2,0.1,0.3,0,0.3c-0.2,0.2-1,0.1-1.2,0.1c-0.4,0-0.7,0.1-1,0.3c-0.2,0.1-0.4,0.3-0.6,0.1c-0.5-0.5,1-0.9,1.2-0.9  c0.3-0.1,0.6-0.1,0.9-0.1C52,56,52.4,56,52.5,56.2z M51.5,50.9c-0.2,0-0.6-0.1-0.8-0.2c-1-0.2-2.2,0.4-3,0.9  c-0.1,0.1-0.2,0.1-0.3,0.1c-0.1,0-0.1,0.1-0.2,0.1c-0.1,0-0.2-0.1-0.3-0.2c0-0.1,0-0.3,0.1-0.4c0.1-0.1,0.2-0.2,0.3-0.2  c0.8-0.6,1.7-0.8,2.6-0.9c0.4,0,0.8-0.1,1.2,0.1c0.2,0.1,0.3,0.2,0.3,0.4C51.7,50.8,51.7,50.8,51.5,50.9z M43.6,45.1  C43.6,45.1,43.6,45.1,43.6,45.1c0,0.7-0.1,1.4-0.1,2.1c-0.1,1.4-0.2,2.8-0.3,4.3c-0.1,1.3-0.3,2.7-0.2,4.1c0.1,0.7,0.1,1.4,0.1,2.2  c0,0.7,0.1,1.4,0,2c-0.2,1.4-0.7,2.7-1.8,3.7c-0.3,0.2-0.5,0.2-0.6,0c-0.2-0.2-0.3-0.4-0.3-0.6c-0.3-0.9-0.6-1.7-0.7-2.6  c-0.1-0.8,0-1.7,0-2.5c0-1.7,0.2-3.4,1-5c0.5-1,1-2.1,1.5-3.1c0.4-1.1,0.8-2.2,1.2-3.3C43.4,45.9,43.5,45.5,43.6,45.1z M21.6,48.1  c0.1-0.5,0.2-1,0.4-1.4c0.4-1.1,0.8-2,1.5-2.9c0.2-0.3,0.5-0.7,0.8-0.9c1.6-1.1,3.4-1.9,5.1-2.7c1.8-0.9,3.6-1.8,5.5-2.5  c1.3-0.5,2.6-1.1,4-1.4c0.8-0.2,1.6-0.3,2.4-0.5c0.1,0,0.1,0,0.3,0c-0.1,0-0.5,0.5-0.6,0.6c-0.3,0.2-0.6,0.4-0.9,0.6  c-1.6,1.1-3.3,1.8-4.9,2.8c-0.6,0.4-1.2,0.8-1.8,1.2c-1.6,1.1-3.2,2.2-4.7,3.3c-1.5,1.1-2.9,2.2-4.4,3.3c-0.6,0.4-1.9,1.5-2.7,1  C21.5,48.5,21.5,48.3,21.6,48.1z M19.9,44.9c0.1-0.2,0.9-0.9,1.2-0.8c0,0,0,0,0.1,0.1c0.1,0.1-0.4,0.9-0.5,1c-0.2,0.4-0.5,0.7-1,0.9  C18.9,46.3,19.7,45.1,19.9,44.9z M20,50.5c0.1-0.1,0.4-0.1,0.5,0c0.1,0,0.1,0.2,0.2,0.4c-0.1,0.2-0.2,0.4-0.2,0.5  c-0.4,0.8-0.9,1.5-1.5,2.1c-0.1,0.1-0.3,0.2-0.4,0.1c-0.1,0-0.2-0.3-0.2-0.4C18.6,52.1,19.2,51.3,20,50.5z M19.5,47.3  c0.2-0.3,0.6-0.6,1-0.5c0,0,0.1,0,0.1,0c0.3,0.2,0,0.6-0.3,0.7C19.9,47.8,19.1,47.9,19.5,47.3z M16.5,48.2c0.3-0.3,0.8-0.6,1.2-0.7  c0.2,0,0.6-0.1,0.7,0.1c0,0,0,0.1,0,0.1c0,0.2-0.4,0.5-0.5,0.6c-0.4,0.3-0.9,0.5-1.5,0.7c0,0-0.1,0-0.1,0c0,0,0,0,0-0.1  C16.1,48.7,16.3,48.4,16.5,48.2z M12.7,53.3c0-0.1,0-0.2,0-0.2c0-0.2,0.1-0.4,0.2-0.6c0.2-0.3,0.5-0.5,0.7-0.7  c0.3-0.3,0.7-0.7,1.2-0.8c0.4-0.1,0.5,0.2,0.4,0.5c-0.3,0.9-1.1,2.2-2.2,2.4c-0.1,0-0.3,0-0.4-0.1C12.7,53.5,12.7,53.4,12.7,53.3z   M6.9,61.6c0,0,0,0.1-0.1,0.1c-0.1,0.1-0.2,0.1-0.4,0.1c0,0,0,0,0,0c-0.1-0.5,0-1,0.2-1.4c0.1-0.2,0.5-0.7,0.7-0.5  c0.3,0.2-0.1,1.3-0.2,1.5C7,61.5,7,61.5,6.9,61.6z M8.5,63.9c-0.2,0.3-0.5,0.7-0.8,1c-0.3,0.2-0.5-0.1-0.6-0.3c0,0,0-0.1,0-0.1  c-0.1-0.3,0-0.5,0.2-0.8c0.1-0.1,0.1-0.2,0.2-0.2c0.2-0.2,0.6-0.2,0.9,0C8.6,63.5,8.6,63.7,8.5,63.9z M9,60.6c-0.1,0-0.1,0-0.2,0  c0-0.2-0.1-0.5-0.1-0.7c0.3-1.1,0.8-2.1,1.5-2.9c0.3-0.3,0.5-0.6,0.8-0.9c0.1-0.1,0.1-0.1,0.2-0.2c0,0,0.1,0,0.1,0.1  c-0.2,0.5-0.3,1.1-0.5,1.6c-0.4,0.8-0.8,1.6-1.2,2.4C9.6,60.2,9.3,60.4,9,60.6z M10.7,65.9c0,0.2-0.1,0.4-0.1,0.5  c-0.1,0.4-0.5,0.7-0.7,0.6c-0.3-0.1-0.7-0.7-0.7-1.1c0-0.3,0.5-0.8,0.8-0.8C10.4,65.2,10.8,65.7,10.7,65.9z M10.4,62.2  c0-0.6,0.1-1.2,0.4-1.7c0.6-1,1.1-2.1,1.6-3.2c0.1-0.2,0.2-0.3,0.3-0.4c0.1-0.3,0.4-0.3,0.6-0.2c0.1,0.1,0.1,0.2,0.2,0.4  c0,0.1,0,0.2,0,0.4c-0.3,1.9-0.7,3.6-1.9,5.1C11,63.2,10.4,62.9,10.4,62.2z M14,67.3c-0.1,0.2-0.3,0.4-0.5,0.5  c-0.1,0.1-0.2,0.1-0.3,0c-0.2-0.1-0.2-0.2-0.4-0.4c-0.1-0.1-0.2-0.2-0.1-0.4c0-0.1,0.1-0.3,0.1-0.4c0-0.1,0.1-0.1,0.1-0.2  c0.2-0.2,1-0.4,1.1,0C14,66.8,14.1,67.1,14,67.3z M13.7,61.9c0-0.3,0.1-0.6,0.3-0.8c0.3-0.4,0.5-0.8,0.8-1.1  c0.2-0.2,0.3-0.2,0.4-0.2c0.2,0.1,0.1,0.7,0,1c-0.1,0.4-0.4,1-0.7,1.3C14.2,62.3,13.7,62.3,13.7,61.9z M14.5,64  c0-0.2,0.2-0.4,0.5-0.6c0.1-0.1,0.3-0.1,0.5-0.1c0.4,0,0.4,0.6,0.3,0.8C15.3,65.3,14.5,64.6,14.5,64z M15.8,68  c-0.4-0.1-0.3-0.8-0.1-1c0.3-0.3,0.7-0.3,0.9,0c0,0,0.1,0.1,0.1,0.1C16.9,67.6,16.3,68.2,15.8,68z M17.3,54.5  c-0.3,1.3-0.9,2.3-1.9,3.1c-0.3,0.2-0.6,0.2-0.9,0c-0.1,0-0.1-0.2-0.1-0.3c0.2-0.5,0.3-1,0.6-1.4c0.3-0.6,0.7-1.2,1.2-1.7  c0.2-0.3,0.5-0.4,0.8-0.7C17.4,53.8,17.4,54.1,17.3,54.5z M17.1,50.7c0-0.1,0.1-0.3,0.2-0.4c0.4-0.4,0.9-0.7,1.3-1  c0,0,0.1,0,0.1-0.1c0,0,0.1,0,0.1,0c0.1,0,0.1,0.2,0.1,0.3c-0.1,0.7-0.9,1.3-1.5,1.5C17.2,51.2,17,50.9,17.1,50.7z M18,65  c-0.3,0-0.5-0.1-0.5-0.4c0-0.2,0.3-0.4,0.8-0.4c0,0.1,0.2,0.2,0.2,0.3C18.6,64.8,18.3,65.1,18,65z M19.7,67.3  c-0.1,0.3-0.3,0.5-0.5,0.7c-0.2,0.2-0.5,0-0.6-0.3c0,0,0-0.1,0-0.1c0-0.1,0-0.2,0-0.2c0.1-0.2,0.1-0.3,0.3-0.4  C19.1,66.7,19.9,66.8,19.7,67.3z M20.6,64.3c0.1-0.2,0.4-0.2,0.5-0.1c0.1,0,0.2,0.1,0.2,0.3C21.5,65.5,20.2,64.8,20.6,64.3z   M20.2,60.4c-0.4,0.3-1.5,1.4-1.3,0.2c0.1-0.5,0.1-0.9,0.2-1.4c0.4-1.7,0.8-3.4,1.3-5.1c0.3-1.1,1-1.9,1.7-2.8  c0.8-1,2.2-1.4,3.4-1.9c0.1,0.3,0,0.6-0.1,0.9c-0.1,0.2-0.2,0.4-0.3,0.6c-0.2,0.5-0.5,1.1-0.7,1.6c-0.3,0.8-0.5,1.5-0.7,2.3  c-0.4,1.4-1.1,2.7-2.1,3.9C21.2,59.3,20.7,59.9,20.2,60.4z M23.2,68c-0.2,0.3-0.7,0.4-1.2,0.2c0.1-0.7,0.3-0.8,1-0.7  C23.3,67.6,23.4,67.8,23.2,68z M23.7,65.6c-0.1,0.3-0.6,0.4-0.7,0.2c-0.1-0.1-0.1-0.2,0-0.4c0.1-0.4,0.5-0.4,0.7-0.2  C23.7,65.4,23.7,65.5,23.7,65.6z M26.1,68.9c-0.2,0.1-0.5,0.1-0.7,0c-0.1-0.1-0.2-0.2-0.2-0.4c0.1-0.5,0.7-1.1,1.1-0.5  C26.6,68.2,26.5,68.8,26.1,68.9z M26.4,66.2C26.4,66.2,26.4,66.2,26.4,66.2c0-0.3,0.5-0.6,0.6-0.4c0.1,0.1,0.2,0.3,0.1,0.5  C27,66.5,26.4,66.5,26.4,66.2z M27.6,73.3c-0.2,0.1-0.5-0.1-0.5-0.3c0-0.1,0-0.1,0.1-0.2C27.4,72.5,27.9,73.1,27.6,73.3z M26.9,63.8  c0,0-0.1,0-0.1,0c-0.1,0-0.3-0.1-0.4-0.2c-0.8-0.7-2.5-2.5-2.2-3.7c0.3-1.3,0.7-2.5,0.9-3.8c0.2-1.4,2-6.6,2.8-7.6  c0.5-0.5,1.2-0.9,1.8-1.3c0.5-0.3,1-0.6,1.4-1c0.3-0.2,0.6-0.5,0.9-0.7c0.3,0.3,0.3,0.6,0.2,0.9c-0.5,1.4-0.9,2.9-1.4,4.3  c-0.3,1-0.6,2.1-0.9,3.1c-0.5,1.9-0.9,3.8-1.5,5.6C28.2,60,27.7,63.8,26.9,63.8z M29.7,74.6c-0.1,0-0.3-0.1-0.3-0.2  c-0.1-0.1-0.1-0.2,0-0.4c0,0,0.3-0.2,0.3-0.2c0.1,0,0.5,0.1,0.5,0.2C30.3,74.4,29.9,74.6,29.7,74.6z M30.4,72.2  c-0.2,0.1-0.5-0.3-0.4-0.5c0.1-0.3,0.5-0.5,0.7-0.3c0,0,0.1,0.1,0.1,0.1C30.9,71.8,30.6,72.2,30.4,72.2z M31.6,65.3  c-0.4,0-0.9-0.2-1.3-0.4c-0.7-0.4-1.5-0.6-1.5-1.5c0-0.7,0.3-1.5,0.5-2.2c0.2-0.6,0.3-1.3,0.5-2c0.3-1.2,0.6-2.5,0.9-3.7  c0.4-1.6,0.8-3.2,1.3-4.8c0.4-1.4,0.7-2.9,1.4-4.2c0.7-1.3,1.6-2.5,2.5-3.6c1.5-1.7,3.5-2.9,4.9-4.7c0.3-0.3,0.6-0.6,0.9-0.8  c0.2-0.1,0.5-0.1,0.7-0.1c0,0,0.1,0.3,0.1,0.5c-0.2,1-0.5,2-0.7,3c-0.2,0.7-0.4,1.4-0.7,2.1c-0.3,0.9-0.6,1.8-0.9,2.7  c-0.5,1.3-1,2.6-1.7,3.9c-0.6,1.1-1.2,2.2-1.8,3.3c-0.8,1.4-1.5,3.2-1.9,4.8c-0.3,1.2-0.5,2.4-1,3.5c-0.4,0.9-0.5,2-0.9,2.8  C32.8,64.6,32.3,65.2,31.6,65.3C31.6,65.3,31.6,65.3,31.6,65.3z M32.1,72.9c0.1-0.1,0.3-0.1,0.4-0.1c0.1,0.1,0.2,0.3,0,0.5  C32.1,73.6,31.9,73.2,32.1,72.9z M32.7,75.6c-0.2,0.1-0.5-0.1-0.5-0.3c0-0.1,0-0.2,0.1-0.2c0.2-0.2,0.7-0.3,0.8,0  C33.2,75.4,32.9,75.6,32.7,75.6z M34.2,71.8C34.1,72,34,72,33.8,72c-0.1,0-0.1,0-0.2,0c-0.1,0-0.1-0.1-0.2-0.1  c-0.2-0.2-0.4-0.4-0.4-0.7c0-0.6,0.5-1,0.8-1.4c0.4-0.6,0.8-1.2,1.2-1.8c0.3-0.4,0.4-0.9,0.6-1.4c0-0.1,0.1-0.2,0.1-0.3  c0,0,0.1,0,0.1,0c0.1,0-0.2,1.4-0.3,1.6c-0.1,0.5-0.3,1-0.5,1.5c-0.2,0.5-0.4,1-0.6,1.6C34.4,71.2,34.4,71.5,34.2,71.8z M35.4,73.6  c-0.1,0.1-0.4,0.3-0.5,0.2c-0.2-0.1-0.1-0.5,0.1-0.6c0,0,0.1,0,0.1,0c0.2,0,0.4,0.1,0.4,0.3C35.5,73.4,35.4,73.5,35.4,73.6z   M35.9,75.5c-0.1-0.1-0.1-0.2,0-0.3c0.1-0.4,0.6-0.6,0.8-0.2C36.9,75.5,36.1,75.8,35.9,75.5z M38.4,73.4c0,0.1-0.1,0.2-0.3,0.2  c-0.1,0-0.2-0.1-0.3-0.2c-0.1-0.2-0.1-0.5,0.1-0.6c0.2-0.1,0.3,0,0.4,0.1C38.4,73.1,38.4,73.3,38.4,73.4z M38.5,70.9  c-0.1,0.3-0.4,0.9-0.8,1c-0.6,0.2-1.3,0.4-2,0.2c-0.3-0.1-0.4-0.3-0.3-0.7c0.1-0.5,0.2-1.1,0.4-1.6c0.4-1.2,0.7-2.4,0.9-3.6  c0.1-0.6,0.2-1.1,0.3-1.6c0.2-0.6,0.4-1.1,0.6-1.7c0.1-0.3,0.2-0.7,0.3-1c0.2-0.3,0.3-0.7,0.5-1c0,0,0.1,0,0.1,0  c0,0.1,0.1,0.2,0.1,0.3c0.1,1.1,0.3,2.2,0.4,3.3c0.1,0.8,0.3,1.8,0.1,2.6c-0.1,0.8-0.1,1.6-0.3,2.4C38.8,70,38.7,70.5,38.5,70.9z   M39.2,75.5c0,0,0-0.1-0.1-0.1c-0.1-0.4,0.5-0.8,0.8-0.5C40.4,75.4,39.4,75.8,39.2,75.5z M41.3,73.6c-0.1,0.1-0.2,0.1-0.3,0  c-0.2-0.1-0.2-0.5,0-0.7C41.5,72.7,41.6,73.4,41.3,73.6z M42.7,74.8c-0.1,0-0.2-0.1-0.2-0.2c0-0.1,0-0.2,0.1-0.3  c0.1-0.1,0.3-0.3,0.5-0.4c0.1-0.1,0.2,0,0.3,0.1C43.4,74.3,43.2,74.9,42.7,74.8z M43.5,70.8c-0.1,0.3-0.4,0.6-0.7,0.7  c-0.4,0.2-1.1,0.4-1.5,0.3c-0.3-0.1-1-0.3-1.1-0.7c0-0.1,0-0.4,0-0.5c0-0.6,0.1-1.1,0.2-1.7c0.1-0.5,0.1-1,0.2-1.6  c0.1-0.8,0.1-1.6,0.4-2.3c0.1-0.3,0.7-0.6,0.8-0.1c0.4,1.1,0.7,2.1,1.1,3.2c0.2,0.6,0.3,1.3,0.5,1.9C43.5,70.2,43.7,70.5,43.5,70.8z   M44,72.3c-0.1,0-0.2-0.1-0.2-0.1c-0.1-0.2,0.3-0.7,0.5-0.5C44.7,71.8,44.3,72.3,44,72.3z M45.8,72.7c-0.3,0.1-0.5-0.1-0.5-0.3  c0-0.1,0.1-0.2,0.2-0.3C46.1,71.8,46.3,72.6,45.8,72.7z M46.2,68.6c-0.2,0.2-0.3,0.4-0.6,0.5c-0.5,0.3-0.7,0-0.9-0.5  c-0.2-0.4-0.4-0.8-0.6-1.3c-0.4-0.9-0.6-1.8-0.7-2.7c-0.1-1,0-2,0.5-3c-0.1,0.2,0.4,1.1,0.4,1.3c0.2,0.4,0.4,0.9,0.6,1.3  c0.5,0.8,1.1,1.5,1.5,2.3C46.9,67.1,46.7,68.1,46.2,68.6z M47.2,63.9c-0.9-1.7-1.7-3.4-2.3-5.2c-0.3-1-0.3-2-0.4-3  c0-0.6-0.1-1.1-0.1-1.7c0-0.7,0-1.4,0-2.2c0-0.6-0.1-1.1-0.1-1.7c0-0.2,0-0.3,0-0.5c0-0.7,0-1.3,0.1-2c0-0.1,0-0.1,0.1-0.2  c0.1,0.4,0.2,0.8,0.3,1.1c0.2,1.2,0.5,2.3,0.9,3.4c0.4,1.2,0.7,2.5,1.1,3.7c0.2,0.5,0.5,1,0.8,1.4c0.7,0.8,1.3,1.6,1.4,2.7  c0.1,0.7,0.2,1.5,0.2,2.2c0,0.4-0.1,0.7-0.2,1.1c0,0.2-0.1,0.3-0.2,0.5c-0.1,0.2-0.1,0.4-0.2,0.5c-0.1,0.1-0.4,0.4-0.5,0.4  c-0.2,0.1-0.3,0.1-0.5-0.1C47.4,64.4,47.3,64.2,47.2,63.9z M47.9,68c-0.1-0.1-0.1-0.1-0.1-0.2c0,0,0,0,0-0.1c0-0.6,0.9-0.3,0.5,0.3  c0,0-0.1,0.1-0.1,0.1C48,68.1,47.9,68.1,47.9,68z M48.6,69.7c-0.1,0.1-0.1,0.1-0.2,0.1c-0.1,0-0.2,0-0.2-0.1c0,0,0,0,0,0  c0-0.1-0.1-0.2,0-0.3C48.2,68.9,49,69.2,48.6,69.7z M48.9,65.7c-0.1-0.1-0.2-0.2-0.1-0.3c0-0.1,0.1-0.2,0.3-0.2  c0.3-0.1,0.4,0,0.4,0.2C49.5,65.6,49.2,65.9,48.9,65.7z M49.5,67.3c-0.2-0.2,0-0.5,0.3-0.4c0,0,0,0,0.1,0  C50.3,67,49.8,67.6,49.5,67.3z M50.3,63.1c-0.1-0.2,0-0.3,0.2-0.4c0.2-0.1,0.4,0,0.4,0.2C50.8,63.2,50.4,63.3,50.3,63.1z M50.7,64.8  c-0.2-0.2,0-0.6,0.3-0.4C51.4,64.6,51,65.1,50.7,64.8z M52.9,59.5c-0.2,0.2-0.8,0-1.1,0.1c-0.1,0-0.7,0.2-0.8,0  c-0.1-0.4,1.1-0.5,1.3-0.5c0.1,0,0.4-0.1,0.6,0c0,0,0.1,0.1,0.1,0.1C53,59.2,53,59.4,52.9,59.5z M53.9,63.3  c-0.1,0.1-0.2,0.1-0.3,0.1c-0.1,0-0.1,0-0.2,0c0,0,0-0.1,0-0.1c0-0.3,0.2-0.4,0.3-0.3C54,62.9,54.2,63.1,53.9,63.3z M53.8,61.7  c-0.3,0-0.3-0.4-0.1-0.6c0.1-0.1,0.1-0.1,0.2-0.1C54.5,60.9,54.3,61.7,53.8,61.7z M55.8,63.5c-0.1,0.1-0.2,0.1-0.3,0.1  c-0.2,0-0.3-0.1-0.3-0.2c-0.1-0.2,0-0.4,0.3-0.4c0.2,0,0.3,0.1,0.4,0.2c0,0,0,0.1,0,0.1C55.9,63.3,55.9,63.4,55.8,63.5z M56.7,62.1  c-0.1,0.1-0.2,0.1-0.4,0.1c-0.7-0.1,0.3-1.2,0.6-0.4C56.9,61.8,56.9,62,56.7,62.1z M57.4,64.4c-0.1,0-0.2-0.2-0.2-0.2  c0-0.2,0.2-0.6,0.5-0.6c0,0,0.1,0,0.1,0.1C58.1,63.9,57.7,64.4,57.4,64.4z M57.1,60.7c-0.1,0.1-0.3,0.1-0.5,0.2  c-0.5,0-1.1-0.5-1.2-1c-0.1-0.3-0.2-0.6-0.2-0.9c-0.1-0.8-0.1-1.6-0.3-2.4c-0.3-0.9-0.4-1.8-0.6-2.6c-0.2-0.8-0.3-1.6-0.6-2.4  c-0.5-1.3-0.6-2.7-1-4c-0.3-0.8-0.5-1.7-0.8-2.5c-0.1-0.4-0.1-0.8-0.2-1.2c0-0.5-0.1-0.9-0.1-1.4c0-0.1,0-0.2,0-0.2  c0.1,0,0.2,0,0.3,0c0.1,0,0.2,0.1,0.3,0.2c0.5,0.7,0.9,1.4,1.4,2.1c0.2,0.4,0.4,0.8,0.7,1.1c0.7,0.6,1,1.6,1.5,2.3  c0.4,0.5,0.5,1.2,0.7,1.9c0.4,1.3,0.7,2.5,1,3.8c0.2,0.7,0.4,1.5,0.5,2.3c0.1,0.5,0.3,1.1,0.3,1.6C58.5,58.8,58.2,59.9,57.1,60.7z   M54.2,43.1C54.2,43.1,54.3,43.1,54.2,43.1c0.1-0.1,2.6,1.2,2.9,1.4c2.1,1.3,4.2,1.6,5.8,3.7c0.5,0.6,0.7,1.2,1,1.8  c0.4,0.9,1.8,3.3,0.8,4.1c-0.3,0.2-0.7,0.3-1,0.2c-0.7-0.2-1.7-1.1-2.2-1.6c-0.6-0.5-1.1-1.1-1.6-1.7c-1-1.2-1.8-2.5-2.7-3.7  c-0.7-1.1-1.6-2.1-2.3-3.1C54.6,43.8,54.4,43.5,54.2,43.1z M59.5,62.4c-0.1,0.2-0.1,0.6-0.4,0.6c-0.1,0-0.3-0.2-0.3-0.3  c0-0.4,0.3-0.6,0.6-0.6C59.4,62.2,59.5,62.3,59.5,62.4z M60.3,64.8c-0.1,0.1-0.4,0.2-0.4,0c0-0.2,0.1-0.6,0.3-0.5c0,0,0.1,0,0.1,0.1  c0.1,0.1,0.1,0.1,0.1,0.2C60.3,64.7,60.3,64.8,60.3,64.8z M59.7,60.9c-0.2-0.2-0.3-0.4-0.2-0.7c0.1-0.4,0.3-0.8,0.4-1.2  c0-0.4-0.1-0.8-0.1-1.3c-0.2-1.5-0.3-3.1-0.7-4.6c0-0.2-0.1-0.4,0-0.5c0.1,0,0.1,0,0.2,0c0.1,0,0.3,0.1,0.4,0.2c0,0,0.1,0.1,0.1,0.1  c0.5,0.5,1.1,1.1,1.5,1.7c0.3,0.4,0.5,0.9,0.7,1.4c0.3,0.9,0.6,1.9,0.8,2.8c0.2,0.7,0.1,1.5,0.2,2.2c0.1,0.5,0.3,1.1-0.4,1.3  c-0.2,0.1-0.4,0.1-0.6,0.1c-0.2,0-0.5,0-0.7-0.2C60.7,61.9,60.2,61.4,59.7,60.9z M61.9,63.9c-0.1,0-0.2,0-0.2,0  c-0.1,0-0.1-0.1-0.2-0.1c-0.1-0.2,0.2-0.5,0.4-0.5C62.4,63.2,62.4,63.8,61.9,63.9z M63,65.7c-0.1,0-0.2,0.1-0.2,0.1  c-0.1,0-0.2,0-0.2-0.1c0,0,0-0.1,0-0.1c0-0.2,0.1-0.5,0.3-0.5c0,0,0.1,0,0.2,0c0.1,0.1,0.3,0.2,0.3,0.4C63.2,65.5,63.1,65.6,63,65.7  z M64.3,64.4c-0.3,0-0.5-0.2-0.5-0.5c0-0.4,0.3-0.4,0.5-0.4c0.2-0.1,0.4,0.1,0.4,0.4C64.7,64.2,64.5,64.4,64.3,64.4z M65.3,66  c-0.1,0.1-0.2,0.2-0.3,0.2c-0.4,0-0.3-0.4-0.1-0.6c0.1-0.1,0.3-0.2,0.4,0.1C65.4,65.8,65.4,65.9,65.3,66z M65,61.5  c-0.3-1.2-0.6-2.4-0.9-3.7c-0.1-0.5-0.3-1-0.3-1.4c0-0.2-0.2-0.4-0.1-0.7c0.1-0.1,0.2-0.2,0.4-0.2c0.3,0,0.6,0.1,0.8,0.2  c0.4,0.1,0.7,0.1,1,0.3c0.6,0.3,1.1,0.9,1.5,1.4c0.6,0.7,1,1.5,1.5,2.3c0.4,0.6,0.5,1.3,0.5,2c-0.1,0.6-1,1.4-1.6,1.4  c-0.5,0-1-0.1-1.4-0.2C65.4,62.7,65.1,62.2,65,61.5z M66.9,64.7c-0.1,0.1-0.2,0.1-0.3,0.1c-0.1,0-0.3,0-0.4-0.1  c-0.1,0-0.1-0.1-0.1-0.2c-0.2-0.5,1-1.1,1-0.2C67.1,64.5,67.1,64.6,66.9,64.7z M67.4,65.8c0.1-0.2,0.3-0.2,0.5-0.1  c0.1,0.1,0.2,0.2,0.2,0.3C68.1,66.5,67.1,66.3,67.4,65.8z M69.3,64.2c-0.1,0.1-0.2,0.2-0.4,0.3c-0.2,0-0.4-0.1-0.4-0.2  c0-0.1,0-0.3,0.1-0.4C68.9,63.5,69.6,63.7,69.3,64.2z M70.1,65.9C70.1,66,70.1,66,70.1,65.9c-0.1,0-0.2,0-0.3,0  c-0.1,0-0.2-0.1-0.2-0.3C69.9,65.2,70.7,65.8,70.1,65.9z M71.1,63.6c-0.2,0-0.3-0.1-0.4-0.2c-0.1-0.2,0.1-0.6,0.3-0.7  c0.1,0,0.1,0,0.2,0c0.3,0.1,0.5,0.5,0.3,0.7C71.4,63.5,71.3,63.6,71.1,63.6z M72.1,64.9c-0.1,0-0.2,0-0.3,0c-0.1,0-0.2-0.2-0.2-0.3  c0-0.4,0.6-0.6,0.8-0.2c0,0,0,0,0,0C72.5,64.7,72.4,64.9,72.1,64.9z M71.2,60.2c-0.5-0.8-1-1.6-1.6-2.4c-0.4-0.6-0.8-1.2-1.4-1.7  c-0.9-0.8-1.4-1.9-1.9-3c-0.3-0.7-0.6-1.5-0.9-2.2c-0.1-0.3-0.2-0.5-0.3-0.8c0-0.2-0.2-0.4-0.2-0.6c0-0.1,0.1-0.2,0.2-0.1  c0.3,0.1,0.8,0.4,0.9,0.5c0.9,0.7,1.7,1.5,2.6,2.2c0.4,0.4,0.9,0.7,1.4,1c0,0,0.1,0,0.1,0.1c0.7,0.5,1.4,1,2,1.6  c0.6,0.7,1.2,1.4,1.7,2.2c0.2,0.2,0.2,0.6,0.2,0.9c0,0.3,0,0.6-0.1,0.9c-0.1,0.3-0.2,0.6-0.4,0.9c-0.2,0.3-0.5,0.6-0.8,0.9  C72.4,60.8,71.5,60.6,71.2,60.2z M73.1,62.3c0,0-0.1-0.1-0.1-0.1c-0.2-0.6,0.9-1.2,1-0.4c0,0.2,0,0.3-0.2,0.4  C73.6,62.3,73.3,62.4,73.1,62.3z M74.3,63.8c-0.1,0-0.1,0.1-0.2,0.1c0,0,0,0,0,0c-0.5,0.1-0.4-0.5-0.2-0.8  C74.2,62.7,74.7,63.5,74.3,63.8z M74.3,55.5c-0.3-0.3-0.5-0.6-0.8-1c-0.5-0.5-1-1-1.5-1.5c-0.1-0.1-0.1-0.2-0.2-0.3c0,0,0,0,0.1-0.1  c0.8,0.3,1.6,0.6,2.3,1c0.4,0.2,0.8,0.6,1.1,0.9c0.2,0.2,0.8,0.6,0.8,0.9c0,0.3-0.2,0.9-0.5,0.9C75.1,56.4,74.5,55.7,74.3,55.5z   M75.2,52.9C75.2,52.9,75.2,52.9,75.2,52.9c0.5,0,1,0,1.5,0.2c0.1,0,0.2,0.4,0.2,0.6c0,0.5-0.5,0.6-0.8,0.3  C75.7,53.7,75.5,53.3,75.2,52.9z M75.1,60.2c0,0-0.1-0.1-0.1-0.2c-0.1-0.2,0-0.4,0.1-0.6c0.2-0.2,0.3-0.3,0.5-0.1  C76,59.5,75.3,60.4,75.1,60.2z M76.2,62.1c-0.4,0.2-0.7-0.3-0.4-0.6c0.1-0.2,0.2-0.2,0.3-0.2C76.4,61.3,76.6,61.9,76.2,62.1z   M76.7,57.4c-0.1,0.1-0.2,0.1-0.3,0.1c-0.1-0.1-0.2-0.3-0.1-0.5c0-0.2,0.2-0.4,0.4-0.4C77.1,56.6,76.9,57.2,76.7,57.4z M77.1,59.1  c0.1-0.2,0.3-0.2,0.4-0.1c0.1,0,0.2,0.1,0.2,0.2C78,59.7,76.7,59.7,77.1,59.1z M77.4,54.8c0.2,0.1,0.2,0.5,0.1,0.6  c-0.1,0.1-0.2,0.1-0.3,0c-0.1,0-0.1-0.1-0.1-0.1C77,55.1,77.2,54.7,77.4,54.8z M77.1,50c-3.8-1.8-7.5-3.6-11.4-5.1  c-1.9-0.8-3.9-1.6-5.7-2.6c-0.8-0.5-1.7-1-2.5-1.5c-1.7-1-3.4-2.3-5-3.5c-0.4-0.3-0.8-0.6-1.2-0.9c0,0,0-0.1,0.1-0.1  c0,0,0.1,0,0.1,0c0.7,0.5,1.5,0.5,2.3,0.6c1.5,0.3,3,0.6,4.4,0.9c2.2,0.5,4.7,1.1,6.8,2.1c2.1,0.9,4.1,1.8,6.1,2.8  c1.1,0.6,2.1,1.2,3.2,1.9c0.9,0.6,1.8,1.2,2.7,1.8c0.6,0.4,1.4,0.8,1.2,1.6c-0.1,0.5-0.2,1-0.3,1.5c0,0.1-0.1,0.2-0.1,0.2  C77.7,50.1,77.6,50.2,77.1,50z M78.5,57.4c-0.3,0.2-0.6-0.1-0.5-0.5c0-0.1,0.1-0.2,0.2-0.3C78.6,56.3,78.8,57.1,78.5,57.4z   M79.2,54.6c0,0.2-0.1,0.3-0.2,0.2c-0.1,0-0.2-0.2-0.2-0.3c0-0.1,0-0.2,0.1-0.2C79.1,54,79.2,54.4,79.2,54.6z M80.3,50.5  C80.3,50.5,80.3,50.5,80.3,50.5c-0.4,0.2-0.6-0.1-0.6-0.3c0-0.1,0.2-0.3,0.3-0.3C80.4,49.8,80.5,50.3,80.3,50.5z M80.7,48.2  c-0.1-0.2,0-0.5,0.2-0.6c0.2-0.1,0.4-0.1,0.6-0.1c0.2,0,0.3,0.2,0.5,0.5c0.2,0.3,0,0.7-0.4,0.7C81.3,48.7,80.8,48.5,80.7,48.2z   M81.7,50.5C81.7,50.5,81.7,50.5,81.7,50.5C81.6,50.5,81.6,50.4,81.7,50.5c-0.1-0.2-0.1-0.3,0-0.4c0.1,0,0.4-0.2,0.5,0.1  c0,0,0,0,0,0C82.2,50.4,81.9,50.6,81.7,50.5z M82.2,43.9c-0.3,0.9-1,1.2-1.8,1.5c-0.4,0.1-0.8,0.3-1.1,0.4c-0.5,0.2-0.8-0.1-1.2-0.3  c-0.8-0.6-1.6-1.2-2.4-1.7c-0.8-0.5-1.6-0.9-2.4-1.3c-1-0.5-2-1-3-1.5c-1.1-0.5-2.2-1-3.3-1.5c-0.2-0.1-0.4-0.2-0.6-0.3  c0.5-0.1,1-0.2,1.4-0.4c0.3-0.1,0.6-0.2,0.9-0.2c1-0.2,2-0.2,2.9,0c0.4,0,0.7,0.1,1.1,0.1c1.1,0.2,2.2,0.8,3.3,1.3  c1,0.4,1.9,0.8,2.8,1.3c0.7,0.4,1.5,0.7,2.2,1.1c0.4,0.3,0.8,0.7,1.2,1C82.2,43.5,82.2,43.7,82.2,43.9z M83.1,46.2  c0.1-0.1,0.3-0.2,0.4-0.3c0.2,0,0.4,0.1,0.4,0.4c0,0.1-0.1,0.3-0.1,0.3c-0.2,0.2-0.5,0.2-0.7,0C82.9,46.6,82.9,46.4,83.1,46.2z   M83.1,48.1c0-0.1,0-0.1,0.1-0.2c0,0,0.1,0,0.1,0c0.2,0,0.4,0,0.5,0.1c0.1,0,0.1,0.1,0.1,0.1c0,0,0,0,0,0.1  C84.1,48.7,82.9,49,83.1,48.1z M84.1,41.8c-0.8,0.1-1.5-0.1-2.2-0.4c-0.7-0.3-1.4-0.6-2.1-1c-1.3-0.6-2.5-1.3-3.8-1.9  c-0.3-0.2-0.7-0.4-0.6-0.8c0-0.3,0.2-0.4,0.5-0.4c0.2,0,0.4-0.1,0.6-0.2c0.2,0,0.4-0.1,0.7-0.1c0.4,0,0.9,0.1,1.3,0.2  c0.7,0.2,1.4,0.4,2.2,0.6c1.1,0.3,1.9,0.9,2.7,1.7c0.4,0.4,0.9,0.8,1.3,1.2C85.1,41.2,84.8,41.7,84.1,41.8z M85.2,44.9  c-0.2-0.1-0.3-0.2-0.3-0.5c0.1-0.5,1.1-0.6,1.1,0c0,0.1-0.1,0.2-0.1,0.3c-0.1,0.2-0.2,0.3-0.3,0.3C85.5,45,85.4,45,85.2,44.9z   M85.6,46.7c0,0,0-0.1,0-0.1c0-0.1,0.1-0.3,0.2-0.4c0.1,0,0.2,0,0.2,0c0.2,0,0.5,0,0.5,0.3C86.6,46.9,85.8,47,85.6,46.7z M88.1,45.5  c0,0.3-0.5,0.3-0.7,0.2c0,0-0.1,0-0.1,0c-0.1,0-0.1-0.1-0.1-0.2c0-0.1,0-0.1,0-0.2c0-0.1,0.1-0.2,0.2-0.2  C87.8,45.1,88.2,45.2,88.1,45.5z M88.7,43c-0.1,0.2-0.3,0.3-0.4,0.4c-0.2,0.1-0.5,0-0.6-0.1c-0.4-0.2-0.1-0.8,0.3-0.8  c0,0,0.1,0,0.2,0C88.3,42.5,88.8,42.7,88.7,43z M88.4,39.8c-1.3,0.4-1.9,0.2-2.8-0.9c-0.3-0.3-0.6-0.5-0.9-0.8  c-0.2-0.2-0.5-0.4-0.7-0.7c-0.3-0.5,0.2-0.9,0.7-0.9c0.1,0,0.4,0.1,0.6,0.2c0.6,0.3,1.1,0.6,1.6,0.9c0.6,0.5,1.3,0.9,1.7,1.6  C88.8,39.6,88.8,39.7,88.4,39.8z M90.2,44.8c-0.3,0.1-0.6-0.2-0.7-0.4c0-0.1,0-0.2,0.1-0.3c0.1,0,0.2,0,0.3,0c0.1,0,0.2,0,0.4,0.1  c0.1,0.1,0.2,0.2,0.2,0.3C90.4,44.6,90.3,44.7,90.2,44.8z M91.1,41.6C91,41.8,90.8,42,90.6,42c-0.3,0-1.3-0.3-1.1-0.8  c0.1-0.1,0.2-0.2,0.3-0.3c0.1-0.1,0.2-0.1,0.3-0.1c0,0,0,0,0,0c0.3,0,0.6,0.2,0.8,0.4C91,41.3,91.2,41.5,91.1,41.6z M91.2,39.9  c-0.1-0.1-0.2-0.2-0.2-0.3c-0.1-0.2,0-0.3,0.2-0.4c0.3-0.1,0.9,0,1,0.4c0.1,0.2-0.1,0.7-0.4,0.6c-0.1,0-0.2-0.1-0.4-0.2  C91.3,40,91.3,40,91.2,39.9z M92.3,43.9C92.3,43.9,92.1,44,92,44c0,0,0,0,0,0c-0.1,0-0.2,0-0.3-0.1c-0.2-0.1-0.3-0.4,0-0.6  C91.9,43.2,92.7,43.6,92.3,43.9z M93.5,42.2c-0.1,0.1-0.3,0-0.4-0.1c-0.2-0.1-0.3-0.2-0.3-0.4c0-0.1,0.1-0.3,0.3-0.3  c0.3-0.1,0.6,0.1,0.7,0.3C93.8,41.9,93.7,42.1,93.5,42.2z"/><text x="0" y="115" fill="#000000" font-size="5px" font-weight="bold" font-family="'Helvetica Neue', Helvetica, Arial-Unicode, Arial, Sans-serif">Created by Bonnie Beach</text><text x="0" y="120" fill="#000000" font-size="5px" font-weight="bold" font-family="'Helvetica Neue', Helvetica, Arial-Unicode, Arial, Sans-serif">from the Noun Project</text></svg>